<?xml version="1.0" encoding="iso-8859-1"?>
<!-- Uploaded to: SVG Repo, www.svgrepo.com, Generator: SVG Repo Mixer Tools -->
<svg fill="#000000" height="800px" width="800px" version="1.1" id="Layer_1" xmlns="http://www.w3.org/2000/svg" xmlns:xlink="http://www.w3.org/1999/xlink" 
	 viewBox="0 0 512 512" xml:space="preserve">
<g>
	<g>
		<path d="M401.052,362.269c-1.579-3.81-5.298-6.296-9.423-6.296h-71.434V10.199C320.195,4.567,315.629,0,309.996,0H202.004
			c-5.633,0-10.199,4.567-10.199,10.199v345.773h-71.434c-4.126,0-7.844,2.486-9.423,6.296c-1.579,3.811-0.707,8.198,2.21,11.115
			l135.629,135.629c1.912,1.912,4.507,2.987,7.212,2.987s5.299-1.075,7.214-2.987l135.629-135.629
			C401.758,370.467,402.631,366.08,401.052,362.269z M255.999,487.376L144.993,376.371h57.012c5.633,0,10.199-4.567,10.199-10.199
			V20.398h87.593v345.773c0,5.632,4.566,10.199,10.199,10.199h57.009L255.999,487.376z"/>
	</g>
</g>
<g>
	<g>
		<path d="M277.417,34.361c-5.633,0-10.199,4.567-10.199,10.199v104.588c0,5.632,4.566,10.199,10.199,10.199
			s10.199-4.566,10.199-10.199V44.56C287.617,38.928,283.05,34.361,277.417,34.361z"/>
	</g>
</g>
<g>
	<g>
		<path d="M277.417,172.05c-5.633,0-10.199,4.567-10.199,10.199v6.436c0,5.632,4.566,10.199,10.199,10.199
			s10.199-4.567,10.199-10.199v-6.436C287.617,176.618,283.05,172.05,277.417,172.05z"/>
	</g>
</g>
</svg>